<svg
  width="24"
  height="24"
  viewBox="0 0 24 24"
  fill="none"
  xmlns="http://www.w3.org/2000/svg">
  <path
    d="M21 14.001C21.5523 14.001 22 14.4487 22 15.001V19.001C22 19.7966 21.6837 20.5595 21.1211 21.1221C20.5585 21.6847 19.7957 22.001 19 22.001H5C4.20435 22.001 3.44152 21.6847 2.87891 21.1221C2.3163 20.5595 2 19.7966 2 19.001V15.001C2 14.4487 2.44772 14.001 3 14.001C3.55228 14.001 4 14.4487 4 15.001V19.001C4 19.2662 4.10543 19.5205 4.29297 19.708C4.48051 19.8955 4.73478 20.001 5 20.001H19C19.2652 20.001 19.5195 19.8955 19.707 19.708C19.8946 19.5205 20 19.2662 20 19.001V15.001C20 14.4487 20.4477 14.001 21 14.001ZM12 2.00098C12.5523 2.00098 13 2.44869 13 3.00098V12.5869L16.293 9.29395C16.6835 8.90342 17.3165 8.90342 17.707 9.29395C18.0976 9.68447 18.0976 10.3175 17.707 10.708L12.707 15.708C12.3165 16.0985 11.6835 16.0985 11.293 15.708L6.29297 10.708C5.90244 10.3175 5.90244 9.68447 6.29297 9.29395C6.68349 8.90342 7.31651 8.90342 7.70703 9.29395L11 12.5869V3.00098C11 2.44869 11.4477 2.00098 12 2.00098Z"
    fill="var(--Text---Icon-White, white)"></path>
</svg>