<svg width="24" height="24" viewBox="0 0 24 24" fill="none" xmlns="http://www.w3.org/2000/svg"><path d="M4 19.001C4 19.5533 4.44771 20.001 5 20.001H9.21094V22.001H5C3.34315 22.001 2 20.6578 2 19.001V14.7803H4V19.001ZM22 19.001C22 20.6578 20.6569 22.001 19 22.001H14.7637V20.001H19C19.5523 20.001 20 19.5533 20 19.001V14.7803H22V19.001ZM9.21094 4.00098H5C4.44772 4.00098 4 4.44869 4 5.00098V9.2207H2V5.00098C2 3.34412 3.34315 2.00098 5 2.00098H9.21094V4.00098ZM19 2.00098C20.6569 2.00098 22 3.34412 22 5.00098V9.2207H20V5.00098C20 4.44869 19.5523 4.00098 19 4.00098H14.7637V2.00098H19Z" fill="var(--Text---Icon-White, white)"></path></svg>